<svg xmlns="http://www.w3.org/2000/svg" height="597pt" version="1.1" viewBox="-33 1 597 597.93624" width="597pt">
<g id="surface1">
<path d="M 529.085938 282.042969 L 345.441406 70.308594 C 344.074219 68.738281 342.101562 67.835938 340.019531 67.828125 L 218.894531 67.828125 L 218.894531 27.050781 C 218.894531 12.113281 206.785156 0 191.84375 0 L 86.988281 0 C 72.050781 0 59.9375 12.113281 59.9375 27.050781 L 59.9375 68.289062 C 26.132812 72.023438 0.53125 100.554688 0.472656 134.5625 L 0.472656 531.265625 C 0.507812 568.109375 30.359375 597.964844 67.203125 598 L 464.140625 598 C 501.027344 598.097656 531.007812 568.269531 531.105469 531.382812 C 531.105469 531.34375 531.105469 531.308594 531.105469 531.269531 L 531.105469 286.773438 C 531.035156 285 530.320312 283.316406 529.085938 282.042969 Z M 204.1875 27.050781 L 204.1875 67.828125 L 182.039062 67.828125 L 182.039062 14.417969 L 191.558594 14.417969 C 198.535156 14.417969 204.1875 20.070312 204.1875 27.050781 Z M 146.511719 67.828125 L 146.511719 14.417969 L 167.738281 14.417969 L 167.738281 67.828125 Z M 111.097656 67.828125 L 111.097656 14.417969 L 132.09375 14.417969 L 132.09375 67.828125 Z M 86.988281 14.417969 L 96.792969 14.417969 L 96.792969 67.828125 L 74.644531 67.828125 L 74.644531 27.050781 C 74.644531 20.1875 80.125 14.574219 86.988281 14.417969 Z M 516.164062 531.265625 C 516.132812 560.144531 492.730469 583.546875 463.851562 583.582031 L 67.4375 583.582031 C 38.558594 583.546875 15.15625 560.144531 15.121094 531.265625 L 15.121094 134.5625 C 15.15625 105.683594 38.558594 82.28125 67.4375 82.246094 L 336.675781 82.246094 L 516.453125 289.425781 Z M 516.164062 531.265625 " style=" stroke:none;fill-rule:nonzero;fill:rgb(0%,0%,0%);fill-opacity:1;" />
<path d="M 284.53125 140.847656 C 269.867188 153.542969 268.261719 175.726562 280.957031 190.394531 L 395.503906 322.417969 C 408.246094 337.085938 430.46875 338.648438 445.136719 325.90625 C 459.804688 313.164062 461.367188 290.941406 448.625 276.277344 L 334.078125 144.425781 C 321.367188 129.785156 299.210938 128.1875 284.53125 140.847656 Z M 442.683594 300.902344 C 441.84375 312.304688 431.910156 320.871094 420.507812 320.023438 C 415.058594 319.621094 409.988281 317.082031 406.40625 312.957031 L 291.914062 180.933594 C 284.445312 172.222656 285.457031 159.101562 294.164062 151.632812 C 302.875 144.164062 315.996094 145.171875 323.464844 153.882812 L 437.722656 285.847656 C 441.324219 290.003906 443.113281 295.421875 442.683594 300.902344 Z M 442.683594 300.902344 " style=" stroke:none;fill-rule:nonzero;fill:rgb(0%,0%,0%);fill-opacity:1;" />
</g>
</svg>