<svg height="512" viewBox="0 0 64 64" width="512" xmlns="http://www.w3.org/2000/svg"><path d="m24.2 41.4-3 4a1 1 0 0 0 -.2.6v2h2v-1.667l2.8-3.733z"/><path d="m21 50h2v2h-2z"/><path d="m50 8.59a4.08 4.08 0 0 0 -1.244-2.946 2.2 2.2 0 0 1 -.756-1.644v-1a1 1 0 0 0 -1-1h-42a1 1 0 0 0 -1 1v1a2.2 2.2 0 0 1 -.756 1.644 4.121 4.121 0 0 0 0 5.9 2.167 2.167 0 0 1 0 3.288 4.132 4.132 0 0 0 0 5.912 2.167 2.167 0 0 1 0 3.288 4.132 4.132 0 0 0 0 5.912 2.167 2.167 0 0 1 0 3.288 4.132 4.132 0 0 0 0 5.912 2.167 2.167 0 0 1 0 3.288 4.142 4.142 0 0 0 0 5.922 2.2 2.2 0 0 1 .756 1.646v1a1 1 0 0 0 1 1h7v2h-1a1 1 0 0 0 -1 1v6a1 1 0 0 0 1 1h18a1 1 0 0 0 1-1v-6a1 1 0 0 0 -1-1h-2v-2h20a1 1 0 0 0 1-1v-1a2.2 2.2 0 0 1 .754-1.644 4.142 4.142 0 0 0 0-5.922 2.167 2.167 0 0 1 0-3.288 4.132 4.132 0 0 0 0-5.912 2.167 2.167 0 0 1 0-3.288 4.132 4.132 0 0 0 0-5.912 2.167 2.167 0 0 1 0-3.288 4.132 4.132 0 0 0 0-5.912 2.167 2.167 0 0 1 0-3.288 4.1 4.1 0 0 0 1.246-2.956zm-22 51.41h-16v-4h16zm-14-6v-6.993a1 1 0 0 0 -.293-.708l-3.707-3.699v-13.6a1 1 0 0 1 1-1h1v13h2v-4h14v5.667l-2.8 3.733a1 1 0 0 0 -.2.6v7zm0-32a1 1 0 0 1 2 0v13h-2zm14 13h-2v-11a1 1 0 0 1 2 0zm-4 0h-2v-12a1 1 0 0 1 2 0zm-4 0h-2v-15a1 1 0 0 1 2 0zm27.245-24.766a4.132 4.132 0 0 0 0 5.912 2.167 2.167 0 0 1 0 3.288 4.132 4.132 0 0 0 0 5.912 2.167 2.167 0 0 1 0 3.288 4.132 4.132 0 0 0 0 5.912 2.167 2.167 0 0 1 0 3.288 4.132 4.132 0 0 0 0 5.912 2.177 2.177 0 0 1 0 3.3 4.1 4.1 0 0 0 -1.245 2.954h-19v-2.667l2.8-3.733a1 1 0 0 0 .2-.6v-19a3 3 0 0 0 -4.472-2.614 3 3 0 0 0 -3.528-1.215v-.171a3 3 0 0 0 -5.895-.789 3 3 0 0 0 -4.105 2.789v4h-1a3 3 0 0 0 -3 3v14.01a1 1 0 0 0 .293.708l3.707 3.703v2.579h-6a4.1 4.1 0 0 0 -1.243-2.955 2.177 2.177 0 0 1 0-3.3 4.132 4.132 0 0 0 0-5.912 2.167 2.167 0 0 1 0-3.288 4.132 4.132 0 0 0 0-5.912 2.167 2.167 0 0 1 0-3.288 4.132 4.132 0 0 0 0-5.912 2.167 2.167 0 0 1 0-3.288 4.132 4.132 0 0 0 0-5.912 2.157 2.157 0 0 1 0-3.276 4.093 4.093 0 0 0 1.243-2.957h40a4.093 4.093 0 0 0 1.248 2.958 2.157 2.157 0 0 1 0 3.276z"/><path d="m52 6h10v2h-10z"/><path d="m51 10h9v2h-9z"/><path d="m52 26h10v2h-10z"/><path d="m51 30h9v2h-9z"/><path d="m42 20a3 3 0 0 1 -3-3 1 1 0 0 0 -2 0 3 3 0 0 1 -3 3 1 1 0 0 0 0 2 3 3 0 0 1 3 3 1 1 0 0 0 2 0 3 3 0 0 1 3-3 1 1 0 0 0 0-2zm-4 2.031a4.988 4.988 0 0 0 -1.031-1.031 4.988 4.988 0 0 0 1.031-1.031 4.988 4.988 0 0 0 1.031 1.031 4.988 4.988 0 0 0 -1.031 1.031z"/><path d="m34 12a1 1 0 0 0 -1-1 3 3 0 0 1 -3-3 1 1 0 0 0 -2 0 3 3 0 0 1 -3 3 1 1 0 0 0 0 2 3 3 0 0 1 3 3 1 1 0 0 0 2 0 3 3 0 0 1 3-3 1 1 0 0 0 1-1zm-5 1.031a4.988 4.988 0 0 0 -1.031-1.031 4.988 4.988 0 0 0 1.031-1.031 4.988 4.988 0 0 0 1.031 1.031 4.988 4.988 0 0 0 -1.031 1.031z"/></svg>